<?xml version="1.0" encoding="UTF-8" standalone="no"?>
<!-- Created with Inkscape (http://www.inkscape.org/) -->

<svg
   width="240mm"
   height="240mm"
   viewBox="0 0 240 240"
   version="1.1"
   id="svg1"
   xml:space="preserve"
   inkscape:version="1.3 (0e150ed6c4, 2023-07-21)"
   sodipodi:docname="export.svg"
   xmlns:inkscape="http://www.inkscape.org/namespaces/inkscape"
   xmlns:sodipodi="http://sodipodi.sourceforge.net/DTD/sodipodi-0.dtd"
   xmlns="http://www.w3.org/2000/svg"
   xmlns:svg="http://www.w3.org/2000/svg"><sodipodi:namedview
     id="namedview1"
     pagecolor="#ffffff"
     bordercolor="#000000"
     borderopacity="0.25"
     inkscape:showpageshadow="2"
     inkscape:pageopacity="0.0"
     inkscape:pagecheckerboard="0"
     inkscape:deskcolor="#d1d1d1"
     inkscape:document-units="mm"
     inkscape:zoom="0.79375"
     inkscape:cx="396.85039"
     inkscape:cy="561.25984"
     inkscape:window-width="1920"
     inkscape:window-height="1129"
     inkscape:window-x="-8"
     inkscape:window-y="-8"
     inkscape:window-maximized="1"
     inkscape:current-layer="layer1" /><defs
     id="defs1" /><g
     inkscape:label="Layer 1"
     inkscape:groupmode="layer"
     id="layer1"><path
       style="fill:#000000"
       d="M 11.330834,227.13048 C 9.3660005,226.29595 7.2391221,224.04085 6.7000905,222.22058 6.3700998,221.10622 6.2674615,189.4116 6.3580605,116.60196 L 6.4875036,12.575477 7.7513902,10.797415 C 8.4702371,9.7861254 9.8160086,8.6414378 10.872085,8.143011 c 1.842654,-0.8696603 2.37099,-0.8763408 69.306549,-0.8763408 72.445396,0 68.699576,-0.1101157 71.291996,2.0957641 0.54989,0.4678969 1.39021,1.6894757 1.86739,2.7146207 0.82609,1.774765 0.86805,2.929517 0.87728,24.147394 l 0.01,22.283496 h -8.83333 -8.83333 V 41.499286 24.490628 H 80.245836 23.933337 V 117.5 210.50937 h 56.312499 56.312504 v -17.00866 -17.00865 h 8.83333 8.83333 l -0.0336,22.28349 c -0.024,15.94762 -0.18102,22.65921 -0.55208,23.60489 -0.76349,1.94582 -2.12022,3.42724 -4.07353,4.44792 l -1.73187,0.90497 -67.581543,-0.0169 c -55.022179,-0.0137 -67.830566,-0.12263 -68.921543,-0.586 z M 182.82847,159.02464 c -2.36621,-1.25172 -2.54513,-2.19992 -2.54513,-13.48794 v -10.32938 l -1.87709,-0.22179 c -1.03239,-0.12199 -9.62833,-0.43323 -19.10208,-0.69164 -23.31867,-0.63606 -59.462378,-2.07234 -65.113297,-2.58748 -3.794384,-0.34589 -4.789645,-0.58894 -5.654158,-1.38075 -3.632118,-3.3267 -4.965859,-13.5704 -2.620215,-20.12439 0.650976,-1.81889 1.679933,-3.72151 2.37624,-4.39385 1.100142,-1.06226 1.711274,-1.23254 5.865596,-1.63432 7.322164,-0.70816 76.531444,-3.89706 84.578604,-3.89706 h 1.5464 V 89.685156 c 0,-11.772249 0.14346,-12.447305 2.91817,-13.730996 1.64716,-0.76204 2.76062,-0.818559 4.37044,-0.221843 1.53075,0.567404 8.45594,5.56902 14.79472,10.685262 5.71231,4.6106 26.48075,24.715461 28.43887,27.530201 1.45725,2.09478 1.66513,4.36599 0.5827,6.3666 -0.94979,1.75546 -13.03258,14.16136 -19.74657,20.27462 -6.67723,6.07979 -13.73378,11.8486 -19.58875,16.01405 -3.77127,2.68303 -4.59544,3.09335 -6.18333,3.07841 -1.00765,-0.009 -2.37615,-0.30505 -3.04112,-0.65682 z"
       id="path1" /></g></svg>
