<?xml version="1.0" encoding="UTF-8" standalone="no"?>
<!-- Created with Inkscape (http://www.inkscape.org/) -->

<svg
   width="240mm"
   height="240mm"
   viewBox="0 0 240 240"
   version="1.1"
   id="svg1"
   xml:space="preserve"
   inkscape:version="1.3 (0e150ed6c4, 2023-07-21)"
   sodipodi:docname="import.svg"
   xmlns:inkscape="http://www.inkscape.org/namespaces/inkscape"
   xmlns:sodipodi="http://sodipodi.sourceforge.net/DTD/sodipodi-0.dtd"
   xmlns="http://www.w3.org/2000/svg"
   xmlns:svg="http://www.w3.org/2000/svg"><sodipodi:namedview
     id="namedview1"
     pagecolor="#ffffff"
     bordercolor="#000000"
     borderopacity="0.25"
     inkscape:showpageshadow="2"
     inkscape:pageopacity="0.0"
     inkscape:pagecheckerboard="0"
     inkscape:deskcolor="#d1d1d1"
     inkscape:document-units="mm"
     inkscape:zoom="0.79375"
     inkscape:cx="396.85039"
     inkscape:cy="561.25984"
     inkscape:window-width="1920"
     inkscape:window-height="1129"
     inkscape:window-x="-8"
     inkscape:window-y="-8"
     inkscape:window-maximized="1"
     inkscape:current-layer="layer1" /><defs
     id="defs1" /><g
     inkscape:label="Layer 1"
     inkscape:groupmode="layer"
     id="layer1"><path
       style="fill:#000000"
       d="m 215.27852,224.03623 c 0.99173,-0.39835 2.4116,-1.58895 3.15528,-2.64577 1.22393,-1.7393 1.35213,-11.58713 1.35213,-103.86344 V 15.585072 l -2.03066,-2.349828 -2.03066,-2.349827 h -66.1961 -66.196088 l -2.030664,2.349827 -2.030663,2.349828 V 37.73212 59.879169 h 7.993359 7.993359 V 43.547919 27.216668 h 53.849997 53.85 v 90.450002 90.45001 h -53.85 -53.849997 v -16.33126 -16.33125 h -7.993359 -7.993359 v 22.25818 l 0,22.25817 2.459495,2.44808 2.459495,2.44808 64.642655,-0.0531 c 35.55345,-0.0292 65.45406,-0.37901 66.44578,-0.77736 z m -92.13837,-68.39829 c 11.52747,-7.8341 37.1733,-32.47183 38.25154,-36.74793 0.77977,-3.09244 -1.76842,-6.39931 -14.54038,-18.86958 -12.93708,-12.631486 -26.37712,-23.39126 -29.21804,-23.39126 -1.02304,0 -2.59505,0.534133 -3.49335,1.186963 -1.44387,1.049311 -1.66521,2.446815 -1.90864,12.050602 l -0.27536,10.863645 -14.028543,0.51686 c -48.693672,1.79404 -63.395688,2.42217 -67.878546,2.90003 -4.858021,0.51785 -5.11191,0.66451 -6.73125,3.88815 -2.384765,4.74739 -2.360274,14.7639 0.04607,18.84375 2.19283,3.71785 1.608184,3.64289 41.938292,5.37708 17.169887,0.73831 34.690898,1.55941 38.935583,1.82468 l 7.7176,0.4823 0.27576,10.88351 c 0.24382,9.62322 0.46488,11.02096 1.90903,12.07047 2.47826,1.80104 4.07562,1.46751 9.00023,-1.87927 z"
       id="path1" /></g></svg>
