<?xml version="1.0" encoding="UTF-8" standalone="no"?>
<!-- Created with Inkscape (http://www.inkscape.org/) -->

<svg
   width="240mm"
   height="240mm"
   viewBox="0 0 240 240"
   version="1.1"
   id="svg1"
   xml:space="preserve"
   inkscape:version="1.3 (0e150ed6c4, 2023-07-21)"
   sodipodi:docname="share.svg"
   xmlns:inkscape="http://www.inkscape.org/namespaces/inkscape"
   xmlns:sodipodi="http://sodipodi.sourceforge.net/DTD/sodipodi-0.dtd"
   xmlns="http://www.w3.org/2000/svg"
   xmlns:svg="http://www.w3.org/2000/svg"><sodipodi:namedview
     id="namedview1"
     pagecolor="#ffffff"
     bordercolor="#000000"
     borderopacity="0.25"
     inkscape:showpageshadow="2"
     inkscape:pageopacity="0.0"
     inkscape:pagecheckerboard="0"
     inkscape:deskcolor="#d1d1d1"
     inkscape:document-units="mm"
     inkscape:zoom="0.79375"
     inkscape:cx="396.85039"
     inkscape:cy="561.25984"
     inkscape:window-width="1920"
     inkscape:window-height="1129"
     inkscape:window-x="-8"
     inkscape:window-y="-8"
     inkscape:window-maximized="1"
     inkscape:current-layer="layer1" /><defs
     id="defs1" /><g
     inkscape:label="Layer 1"
     inkscape:groupmode="layer"
     id="layer1"><path
       style="fill:#000000;stroke-width:0.928516"
       d="m 169.68336,238.35432 c -5.29134,-0.35047 -10.82598,-1.81893 -15.72574,-4.17237 -2.82277,-1.35581 -6.21036,-3.41116 -6.21036,-3.76798 0,-0.11478 -0.0939,-0.18164 -0.20864,-0.14853 -0.64766,0.18684 -7.42246,-6.52597 -9.28524,-9.20027 -3.02899,-4.34854 -5.21483,-9.26814 -6.35226,-14.29674 -0.4712,-2.08319 -0.55266,-3.18761 -0.55313,-7.4986 -6.2e-4,-5.61408 0.26113,-7.26018 1.94952,-12.26018 l 0.86566,-2.56358 -0.54089,-0.32276 c -0.71826,-0.42863 -3.73711,-2.08829 -5.30415,-2.91603 -2.85683,-1.50906 -16.25962,-8.73227 -25.44588,-13.71365 -3.102393,-1.68232 -6.317594,-3.41725 -7.144894,-3.8554 -6.319795,-3.34707 -10.380037,-5.5985 -10.276197,-5.69822 0.06755,-0.0648 -0.01809,-0.1194 -0.190462,-0.12108 -0.172355,-0.002 -1.375204,-0.57101 -2.672995,-1.26521 l -2.359621,-1.26215 -2.152949,0.97007 c -3.66071,1.64942 -7.515445,2.6265 -12.545531,3.17992 -3.704191,0.40757 -10.730771,0.16478 -13.756138,-0.4753 -7.800476,-1.65036 -14.782636,-5.17201 -20.275691,-10.22665 -5.742239,-5.28393 -9.680369,-11.82615 -11.770701,-19.55409 -0.681831,-2.52073 -0.708762,-2.8388 -0.711035,-8.39779 -0.002,-4.80672 0.07654,-6.10129 0.467084,-7.70237 0.581156,-2.38254 2.221667,-6.98888 3.07652,-8.63848 1.480963,-2.8578 2.942728,-5.17712 3.175744,-5.038829 0.13748,0.08165 0.179873,0.03947 0.09421,-0.09369 -0.390053,-0.606047 3.954632,-5.413958 7.348537,-8.132018 7.452262,-5.968265 16.058173,-9.081482 26.089836,-9.4381 7.316531,-0.260099 13.334437,0.848533 19.017611,3.503438 0.886208,0.413982 1.769183,0.752719 1.962166,0.752719 0.307602,0 2.76498,-1.248354 6.314849,-3.207969 0.612629,-0.338183 1.233113,-0.549875 1.378842,-0.470435 0.145739,0.07948 0.181127,0.05552 0.07865,-0.05302 -0.246857,-0.261595 6.810527,-4.008508 7.174441,-3.80906 0.155166,0.08502 0.198013,0.0656 0.09521,-0.04337 -0.10281,-0.108926 0.686887,-0.678287 1.754885,-1.265259 7.422989,-4.079633 12.182969,-6.534678 12.409369,-6.400335 0.14552,0.08643 0.19668,0.05151 0.11369,-0.07742 -0.083,-0.128965 1.22513,-0.974094 2.90697,-1.878082 1.68184,-0.903968 5.87824,-3.15862 9.32533,-5.01033 10.6629,-5.727913 12.40955,-6.702701 12.40955,-6.925681 0,-0.118674 -0.33632,-1.100715 -0.74738,-2.182314 -0.41106,-1.081608 -1.05547,-3.224333 -1.43207,-4.761606 -0.62788,-2.563167 -0.68498,-3.204469 -0.68832,-7.730269 -0.003,-4.219932 0.0773,-5.289885 0.55499,-7.382221 1.93037,-8.455458 5.83508,-15.180277 12.12022,-20.873897 2.80987,-2.545435 6.82105,-5.3353997 7.27958,-5.0632792 0.1688,0.1001851 0.2208,0.065897 0.12525,-0.082597 -0.22774,-0.353828 3.8105,-2.3134798 7.06297,-3.4274878 12.35218,-4.2307705 25.1862,-3.0480815 36.48839,3.3625013 1.196,0.6783736 2.11646,1.3236727 2.04544,1.4339987 -0.071,0.110325 0.0671,0.185737 0.30693,0.167587 0.24117,-0.01825 0.40523,0.109483 0.36714,0.285817 -0.038,0.175352 0.0357,0.256772 0.16344,0.180934 0.30585,-0.181512 3.7285,2.509555 5.83994,4.591651 4.85642,4.7889 8.79892,11.724394 10.31191,18.140253 0.47298,2.005686 0.54001,3.027496 0.54486,8.305624 0.006,6.631313 -0.14075,7.772395 -1.52853,11.87803 -1.6118,4.768493 -4.54833,9.765668 -7.87431,13.399948 -0.84823,0.926858 -1.67309,1.649085 -1.83299,1.60495 -0.15993,-0.04413 -0.20646,7.16e-4 -0.10345,0.09965 0.33027,0.317157 -3.63219,3.580982 -6.71234,5.528865 -2.39252,1.513028 -7.60859,3.995822 -8.50293,4.047308 -0.32593,0.01876 -0.55035,0.09987 -0.49869,0.180255 0.11537,0.179485 -4.67909,1.514188 -6.91089,1.923887 -2.03595,0.373761 -10.43583,0.367115 -14.03911,-0.01117 -4.62747,-0.485713 -7.22092,-1.284278 -12.64675,-3.894183 -2.95637,-1.422059 -5.14598,-2.712399 -7.98527,-4.705739 l -1.45363,-1.020516 -1.57561,0.831672 c -0.86661,0.457433 -1.65087,0.777496 -1.74282,0.711296 -0.092,-0.06625 -0.11254,-0.04999 -0.0458,0.03622 0.0667,0.0861 -1.48447,1.010084 -3.44711,2.053198 -1.96263,1.043103 -3.73765,2.000237 -3.94447,2.126967 -0.20682,0.126731 -0.7709,0.43311 -1.2535,0.680836 -0.4826,0.247725 -2.11839,1.129125 -3.63512,1.958662 -1.51671,0.829535 -4.6191,2.509458 -6.8942,3.733153 -2.27509,1.223683 -6.26199,3.377185 -8.8598,4.78557 -2.5978,1.408385 -4.75329,2.560685 -4.78997,2.560685 -0.0366,0 -1.04984,0.543282 -2.25151,1.207288 -1.20166,0.663995 -2.30701,1.134776 -2.45634,1.046139 -0.14934,-0.0886 -0.20369,-0.05573 -0.12078,0.07308 0.16206,0.251824 -3.25191,2.149121 -3.768363,2.094253 -0.17087,-0.01822 -0.26058,0.04478 -0.19934,0.139981 0.0612,0.0951 -0.75789,0.618733 -1.82027,1.163522 -3.256687,1.67006 -3.127502,1.321585 -1.46701,3.957089 2.79555,4.4371 5.201063,10.34324 5.663423,13.90515 0.34548,2.66152 0.33886,10.85068 -0.0109,13.59003 -0.15091,1.18166 -0.48704,2.78772 -0.74695,3.56901 -0.77413,2.32698 -2.764201,6.68078 -3.053707,6.68078 -0.147945,0 -0.198609,0.0677 -0.112594,0.15019 0.18672,0.17931 -0.492255,1.49533 -2.016276,3.90801 -1.304624,2.06535 -1.375546,1.9016 1.50363,3.47157 1.067998,0.58237 1.857704,1.14794 1.754894,1.25688 -0.10281,0.10891 -0.0605,0.12875 0.0941,0.0442 0.15453,-0.0847 1.621113,0.5799 3.259073,1.47683 1.63796,0.89693 4.33189,2.3632 5.9865,3.25837 1.6546,0.89519 3.17759,1.72774 3.38442,1.85016 0.20682,0.12239 2.37595,1.29245 4.82028,2.6001 2.44432,1.30767 4.39036,2.44735 4.32454,2.53262 -0.0659,0.0853 -0.049,0.10518 0.0374,0.0444 0.20898,-0.1473 0.59037,0.0465 8.74266,4.4425 3.86074,2.08187 7.69643,4.13847 8.52373,4.57023 0.82731,0.43174 2.47649,1.31378 3.66488,1.96008 1.18839,0.64631 2.24986,1.17509 2.35887,1.17509 0.10898,0 0.78788,-0.42757 1.50867,-0.95013 0.72077,-0.5226 1.37971,-0.88372 1.46429,-0.80249 0.0846,0.0812 0.15378,0.0318 0.15378,-0.11 0,-0.77905 8.29278,-4.96595 12.47248,-6.29718 4.27349,-1.36108 6.87765,-1.73453 12.01093,-1.7224 6.85467,0.0161 10.73195,0.51087 15.15336,1.93335 2.69422,0.86679 7.31907,3.06306 7.11566,3.3791 -0.0816,0.12697 0.002,0.17525 0.1868,0.10725 0.77782,-0.28662 6.42358,3.93977 9.68911,7.25321 6.25331,6.34511 9.70274,13.80829 10.59873,22.93141 1.16114,11.82305 -4.34456,24.72065 -13.85211,32.44987 -2.649,2.15353 -7.14176,4.99313 -7.53281,4.76102 -0.17308,-0.1028 -0.22544,-0.0694 -0.12822,0.0817 0.19638,0.30512 -4.55917,2.28908 -7.48244,3.12156 -3.26974,0.93114 -6.60504,1.52539 -9.27583,1.65267 -1.37884,0.0656 -2.84543,0.14814 -3.25909,0.1832 -0.41364,0.035 -1.99304,-0.0185 -3.50977,-0.11891 z"
       id="path1" /></g></svg>
